<svg xmlns="http://www.w3.org/2000/svg" xmlns:xlink="http://www.w3.org/1999/xlink" width="181" zoomAndPan="magnify" viewBox="0 0 135.75 118.499997" height="158" preserveAspectRatio="xMidYMid meet" version="1.0"><defs><g/><clipPath id="ac272f3188"><path d="M 15.648438 16.730469 L 131.851562 16.730469 L 131.851562 117.800781 L 15.648438 117.800781 Z M 15.648438 16.730469 " clip-rule="nonzero"/></clipPath><clipPath id="7c52b63eb6"><path d="M 9 16.726562 L 11 16.726562 L 11 18.96875 L 9 18.96875 Z M 9.621094 18.96875 L 10.371094 18.96875 L 10.371094 28.625 L 9.621094 28.625 Z M 9.621094 43.234375 L 10.371094 43.234375 L 10.371094 52.890625 L 9.621094 52.890625 Z M 9 52.890625 L 11 52.890625 L 11 55.132812 L 9 55.132812 Z M 9 52.890625 " clip-rule="nonzero"/></clipPath><clipPath id="d95251d872"><path d="M 9.621094 52 L 10.371094 52 L 10.371094 52.890625 L 9.621094 52.890625 Z M 8.503906 52.890625 L 11.488281 52.890625 L 11.488281 55.132812 L 8.503906 55.132812 Z M 8.503906 52.890625 " clip-rule="nonzero"/></clipPath><clipPath id="65e3fab3ad"><path d="M 8.503906 16.726562 L 11.488281 16.726562 L 11.488281 18.96875 L 8.503906 18.96875 Z M 9.621094 18.96875 L 10.371094 18.96875 L 10.371094 19 L 9.621094 19 Z M 9.621094 18.96875 " clip-rule="nonzero"/></clipPath><clipPath id="2b3c444d63"><path d="M 15.644531 9 L 17.882812 9 L 17.882812 9.457031 L 15.644531 9.457031 Z M 41.730469 9 L 43.96875 9 L 43.96875 9.457031 L 41.730469 9.457031 Z M 37.582031 9.457031 L 43.96875 9.457031 L 43.96875 10.203125 L 37.582031 10.203125 Z M 15.644531 9.457031 L 22.03125 9.457031 L 22.03125 10.203125 L 15.644531 10.203125 Z M 15.644531 10.203125 L 17.882812 10.203125 L 17.882812 11 L 15.644531 11 Z M 41.730469 10.203125 L 43.96875 10.203125 L 43.96875 11 L 41.730469 11 Z M 41.730469 10.203125 " clip-rule="nonzero"/></clipPath><clipPath id="707c9280bb"><path d="M 41.730469 8.335938 L 43.96875 8.335938 L 43.96875 9.457031 L 41.730469 9.457031 Z M 41 9.457031 L 43.96875 9.457031 L 43.96875 10.203125 L 41 10.203125 Z M 41.730469 10.203125 L 43.96875 10.203125 L 43.96875 11.324219 L 41.730469 11.324219 Z M 41.730469 10.203125 " clip-rule="nonzero"/></clipPath><clipPath id="1a76f1997f"><path d="M 15.644531 8.335938 L 17.882812 8.335938 L 17.882812 9.457031 L 15.644531 9.457031 Z M 15.644531 9.457031 L 18 9.457031 L 18 10.203125 L 15.644531 10.203125 Z M 15.644531 10.203125 L 17.882812 10.203125 L 17.882812 11.324219 L 15.644531 11.324219 Z M 15.644531 10.203125 " clip-rule="nonzero"/></clipPath><clipPath id="67a0bda212"><path d="M 43.976562 103 L 46.214844 103 L 46.214844 103.144531 L 43.976562 103.144531 Z M 115.4375 103 L 117.679688 103 L 117.679688 103.144531 L 115.4375 103.144531 Z M 88.121094 103.144531 L 117.679688 103.144531 L 117.679688 103.894531 L 88.121094 103.894531 Z M 43.976562 103.144531 L 73.535156 103.144531 L 73.535156 103.894531 L 43.976562 103.894531 Z M 115.4375 103.894531 L 117.679688 103.894531 L 117.679688 104 L 115.4375 104 Z M 43.976562 103.894531 L 46.214844 103.894531 L 46.214844 104 L 43.976562 104 Z M 43.976562 103.894531 " clip-rule="nonzero"/></clipPath><clipPath id="a0b7be1eff"><path d="M 43.976562 102.027344 L 46.214844 102.027344 L 46.214844 103.144531 L 43.976562 103.144531 Z M 43.976562 103.144531 L 47 103.144531 L 47 103.894531 L 43.976562 103.894531 Z M 43.976562 103.894531 L 46.214844 103.894531 L 46.214844 105.011719 L 43.976562 105.011719 Z M 43.976562 103.894531 " clip-rule="nonzero"/></clipPath><clipPath id="e60ad7669e"><path d="M 115.4375 102.027344 L 117.679688 102.027344 L 117.679688 103.144531 L 115.4375 103.144531 Z M 115 103.144531 L 117.679688 103.144531 L 117.679688 103.894531 L 115 103.894531 Z M 115.4375 103.894531 L 117.679688 103.894531 L 117.679688 105.011719 L 115.4375 105.011719 Z M 115.4375 103.894531 " clip-rule="nonzero"/></clipPath><clipPath id="f45442970d"><path d="M 124 55.132812 L 126 55.132812 L 126 57.371094 L 124 57.371094 Z M 124.445312 57.371094 L 125.191406 57.371094 L 125.191406 69.175781 L 124.445312 69.175781 Z M 124.445312 84.722656 L 125.191406 84.722656 L 125.191406 96.523438 L 124.445312 96.523438 Z M 124 96.523438 L 126 96.523438 L 126 98.765625 L 124 98.765625 Z M 124 96.523438 " clip-rule="nonzero"/></clipPath><clipPath id="17dfbcb6f3"><path d="M 124.445312 96 L 125.191406 96 L 125.191406 96.523438 L 124.445312 96.523438 Z M 123.324219 96.523438 L 126.3125 96.523438 L 126.3125 98.765625 L 123.324219 98.765625 Z M 123.324219 96.523438 " clip-rule="nonzero"/></clipPath><clipPath id="70d2f26e55"><path d="M 123.324219 55.132812 L 126.3125 55.132812 L 126.3125 57.371094 L 123.324219 57.371094 Z M 124.445312 57.371094 L 125.191406 57.371094 L 125.191406 58 L 124.445312 58 Z M 124.445312 57.371094 " clip-rule="nonzero"/></clipPath><clipPath id="f320379dd4"><path d="M 43.976562 55.136719 L 117.679688 55.136719 L 117.679688 98.769531 L 43.976562 98.769531 Z M 43.976562 55.136719 " clip-rule="nonzero"/></clipPath></defs><g clip-path="url(#ac272f3188)"><path fill="#00c5cd" d="M 15.648438 16.730469 L 131.722656 16.730469 L 131.722656 117.800781 L 15.648438 117.800781 Z M 15.648438 16.730469 " fill-opacity="1" fill-rule="nonzero"/></g><g clip-path="url(#7c52b63eb6)"><path stroke-linecap="butt" transform="matrix(0, -0.746849, 0.746849, 0, 0.162467, 55.132239)" fill="none" stroke-linejoin="miter" d="M 0.501341 13.166826 L 50.921528 13.166826 " stroke="#00bf63" stroke-width="1" stroke-opacity="1" stroke-miterlimit="4"/></g><g clip-path="url(#d95251d872)"><path stroke-linecap="round" transform="matrix(0, -0.746849, 0.746849, 0, 0.162467, 55.132239)" fill="none" stroke-linejoin="round" d="M 2.49932 11.665727 L 0.501341 13.166826 L 2.49932 14.667925 " stroke="#00bf63" stroke-width="1" stroke-opacity="1" stroke-miterlimit="4"/></g><g clip-path="url(#65e3fab3ad)"><path stroke-linecap="round" transform="matrix(0, -0.746849, 0.746849, 0, 0.162467, 55.132239)" fill="none" stroke-linejoin="round" d="M 48.923549 11.665727 L 50.921528 13.166826 L 48.923549 14.667925 " stroke="#00bf63" stroke-width="1" stroke-opacity="1" stroke-miterlimit="4"/></g><g fill="#00bf63" fill-opacity="1"><g transform="translate(5.985164, 32.820131)"><g><path d="M -0.109375 2.4375 C -0.109375 1.851562 0.0390625 1.394531 0.34375 1.0625 C 0.644531 0.738281 1.078125 0.578125 1.640625 0.578125 C 1.992188 0.578125 2.289062 0.648438 2.53125 0.796875 C 2.769531 0.941406 2.960938 1.164062 3.109375 1.46875 C 3.265625 1.769531 3.382812 2.164062 3.46875 2.65625 C 3.539062 3.082031 3.617188 3.40625 3.703125 3.625 C 3.796875 3.851562 3.894531 4.003906 4 4.078125 C 4.113281 4.160156 4.253906 4.203125 4.421875 4.203125 C 4.691406 4.203125 4.898438 4.109375 5.046875 3.921875 C 5.191406 3.742188 5.265625 3.453125 5.265625 3.046875 C 5.265625 2.660156 5.1875 2.332031 5.03125 2.0625 C 4.882812 1.789062 4.664062 1.539062 4.375 1.3125 L 4.375 1.203125 L 4.984375 0.765625 C 5.296875 1.015625 5.546875 1.332031 5.734375 1.71875 C 5.921875 2.101562 6.015625 2.546875 6.015625 3.046875 C 6.015625 3.742188 5.863281 4.253906 5.5625 4.578125 C 5.257812 4.910156 4.835938 5.078125 4.296875 5.078125 L 1.15625 5.078125 C 0.832031 5.078125 0.671875 5.21875 0.671875 5.5 C 0.671875 5.59375 0.6875 5.679688 0.71875 5.765625 L 0.703125 5.84375 L 0.09375 5.9375 C 0.0507812 5.875 0.0195312 5.789062 0 5.6875 C -0.03125 5.582031 -0.046875 5.472656 -0.046875 5.359375 C -0.046875 5.035156 0.0234375 4.789062 0.171875 4.625 C 0.316406 4.457031 0.523438 4.351562 0.796875 4.3125 L 0.8125 4.1875 C 0.5 4.019531 0.265625 3.789062 0.109375 3.5 C -0.0351562 3.21875 -0.109375 2.863281 -0.109375 2.4375 Z M 0.578125 2.625 C 0.578125 2.957031 0.648438 3.242188 0.796875 3.484375 C 0.953125 3.722656 1.164062 3.90625 1.4375 4.03125 C 1.71875 4.164062 2.039062 4.234375 2.40625 4.234375 L 3.15625 4.234375 L 3.171875 4.125 C 3.078125 4 3 3.835938 2.9375 3.640625 C 2.875 3.453125 2.820312 3.191406 2.78125 2.859375 C 2.726562 2.515625 2.65625 2.238281 2.5625 2.03125 C 2.46875 1.832031 2.34375 1.691406 2.1875 1.609375 C 2.039062 1.523438 1.859375 1.484375 1.640625 1.484375 C 1.296875 1.484375 1.03125 1.582031 0.84375 1.78125 C 0.664062 1.988281 0.578125 2.269531 0.578125 2.625 Z M 0.578125 2.625 "/></g></g></g><g clip-path="url(#2b3c444d63)"><path stroke-linecap="butt" transform="matrix(-0.746849, 0, 0, -0.746849, 43.970418, 19.663126)" fill="none" stroke-linejoin="miter" d="M 0.499113 13.168666 L 37.43033 13.168666 " stroke="#00bf63" stroke-width="1" stroke-opacity="1" stroke-miterlimit="4"/></g><g clip-path="url(#707c9280bb)"><path stroke-linecap="round" transform="matrix(-0.746849, 0, 0, -0.746849, 43.970418, 19.663126)" fill="none" stroke-linejoin="round" d="M 2.502322 11.667567 L 0.499113 13.168666 L 2.502322 14.664534 " stroke="#00bf63" stroke-width="1" stroke-opacity="1" stroke-miterlimit="4"/></g><g clip-path="url(#1a76f1997f)"><path stroke-linecap="round" transform="matrix(-0.746849, 0, 0, -0.746849, 43.970418, 19.663126)" fill="none" stroke-linejoin="round" d="M 35.427122 11.667567 L 37.43033 13.168666 L 35.427122 14.664534 " stroke="#00bf63" stroke-width="1" stroke-opacity="1" stroke-miterlimit="4"/></g><g fill="#00bf63" fill-opacity="1"><g transform="translate(25.952694, 13.840428)"><g><path d="M 3.921875 0.109375 C 3.484375 0.109375 3.101562 0.0234375 2.78125 -0.140625 C 2.457031 -0.304688 2.203125 -0.53125 2.015625 -0.8125 L 1.90625 -0.796875 L 1.90625 0 L 1.03125 0 L 1.03125 -8.28125 L 1.90625 -8.28125 L 1.90625 -5.03125 L 2.015625 -5 C 2.460938 -5.675781 3.113281 -6.015625 3.96875 -6.015625 C 4.457031 -6.015625 4.882812 -5.898438 5.25 -5.671875 C 5.613281 -5.453125 5.894531 -5.113281 6.09375 -4.65625 C 6.300781 -4.195312 6.40625 -3.628906 6.40625 -2.953125 C 6.40625 -2.273438 6.296875 -1.707031 6.078125 -1.25 C 5.867188 -0.789062 5.578125 -0.445312 5.203125 -0.21875 C 4.835938 0 4.410156 0.109375 3.921875 0.109375 Z M 3.71875 -0.671875 C 4.894531 -0.671875 5.484375 -1.429688 5.484375 -2.953125 C 5.484375 -3.742188 5.328125 -4.320312 5.015625 -4.6875 C 4.710938 -5.050781 4.28125 -5.234375 3.71875 -5.234375 C 3.164062 -5.234375 2.722656 -5.046875 2.390625 -4.671875 C 2.066406 -4.296875 1.90625 -3.722656 1.90625 -2.953125 C 1.90625 -2.179688 2.066406 -1.609375 2.390625 -1.234375 C 2.722656 -0.859375 3.164062 -0.671875 3.71875 -0.671875 Z M 3.71875 -0.671875 "/></g></g></g><g fill="#545454" fill-opacity="1"><g transform="translate(58.128982, 30.549536)"><g><path d="M 3.296875 0.09375 C 2.742188 0.09375 2.253906 -0.0195312 1.828125 -0.25 C 1.410156 -0.476562 1.078125 -0.820312 0.828125 -1.28125 C 0.585938 -1.75 0.46875 -2.332031 0.46875 -3.03125 C 0.46875 -3.71875 0.585938 -4.296875 0.828125 -4.765625 C 1.078125 -5.234375 1.410156 -5.578125 1.828125 -5.796875 C 2.253906 -6.023438 2.742188 -6.140625 3.296875 -6.140625 C 3.859375 -6.140625 4.347656 -6.023438 4.765625 -5.796875 C 5.191406 -5.578125 5.523438 -5.234375 5.765625 -4.765625 C 6.003906 -4.296875 6.125 -3.71875 6.125 -3.03125 C 6.125 -2.332031 6.003906 -1.75 5.765625 -1.28125 C 5.523438 -0.820312 5.191406 -0.476562 4.765625 -0.25 C 4.347656 -0.0195312 3.859375 0.09375 3.296875 0.09375 Z M 3.296875 -0.953125 C 3.816406 -0.953125 4.210938 -1.113281 4.484375 -1.4375 C 4.753906 -1.769531 4.890625 -2.300781 4.890625 -3.03125 C 4.890625 -3.75 4.753906 -4.273438 4.484375 -4.609375 C 4.210938 -4.941406 3.816406 -5.109375 3.296875 -5.109375 C 2.785156 -5.109375 2.394531 -4.941406 2.125 -4.609375 C 1.851562 -4.273438 1.71875 -3.75 1.71875 -3.03125 C 1.71875 -2.300781 1.851562 -1.769531 2.125 -1.4375 C 2.394531 -1.113281 2.785156 -0.953125 3.296875 -0.953125 Z M 3.296875 -0.953125 "/></g></g><g transform="translate(64.727668, 30.549536)"><g><path d="M 0.65625 0 L 0.65625 -4.5625 L 1.765625 -4.5625 L 1.765625 -3.890625 L 1.859375 -3.875 C 1.972656 -4.125 2.117188 -4.304688 2.296875 -4.421875 C 2.472656 -4.546875 2.691406 -4.609375 2.953125 -4.609375 C 3.210938 -4.609375 3.410156 -4.566406 3.546875 -4.484375 L 3.34375 -3.484375 L 3.265625 -3.46875 C 3.191406 -3.5 3.117188 -3.519531 3.046875 -3.53125 C 2.972656 -3.550781 2.890625 -3.5625 2.796875 -3.5625 C 2.472656 -3.5625 2.226562 -3.445312 2.0625 -3.21875 C 1.894531 -3 1.8125 -2.640625 1.8125 -2.140625 L 1.8125 0 Z M 0.65625 0 "/></g></g><g transform="translate(68.310759, 30.549536)"><g><path d="M 1.234375 -5.109375 C 1.023438 -5.109375 0.851562 -5.171875 0.71875 -5.296875 C 0.59375 -5.429688 0.53125 -5.597656 0.53125 -5.796875 C 0.53125 -5.984375 0.59375 -6.140625 0.71875 -6.265625 C 0.851562 -6.398438 1.023438 -6.46875 1.234375 -6.46875 C 1.367188 -6.46875 1.488281 -6.4375 1.59375 -6.375 C 1.707031 -6.3125 1.789062 -6.226562 1.84375 -6.125 C 1.90625 -6.03125 1.9375 -5.921875 1.9375 -5.796875 C 1.9375 -5.660156 1.90625 -5.539062 1.84375 -5.4375 C 1.789062 -5.34375 1.707031 -5.265625 1.59375 -5.203125 C 1.488281 -5.140625 1.367188 -5.109375 1.234375 -5.109375 Z M 0.65625 0 L 0.65625 -4.5625 L 1.8125 -4.5625 L 1.8125 0 Z M 0.65625 0 "/></g></g><g transform="translate(70.771286, 30.549536)"><g><path d="M 2.375 1.9375 C 1.613281 1.9375 1.050781 1.828125 0.6875 1.609375 C 0.332031 1.390625 0.15625 1.082031 0.15625 0.6875 C 0.15625 0.445312 0.234375 0.25 0.390625 0.09375 C 0.546875 -0.0625 0.765625 -0.164062 1.046875 -0.21875 L 1.046875 -0.296875 C 0.890625 -0.390625 0.78125 -0.492188 0.71875 -0.609375 C 0.65625 -0.722656 0.625 -0.859375 0.625 -1.015625 C 0.625 -1.378906 0.859375 -1.625 1.328125 -1.75 L 1.328125 -1.84375 C 1.085938 -1.988281 0.90625 -2.164062 0.78125 -2.375 C 0.65625 -2.582031 0.59375 -2.832031 0.59375 -3.125 C 0.59375 -3.425781 0.660156 -3.691406 0.796875 -3.921875 C 0.941406 -4.148438 1.144531 -4.328125 1.40625 -4.453125 C 1.675781 -4.585938 2 -4.65625 2.375 -4.65625 C 2.757812 -4.65625 3.066406 -4.585938 3.296875 -4.453125 C 3.429688 -4.660156 3.507812 -4.898438 3.53125 -5.171875 L 3.625 -5.21875 L 4.453125 -5.015625 C 4.421875 -4.796875 4.351562 -4.613281 4.25 -4.46875 C 4.15625 -4.320312 4 -4.191406 3.78125 -4.078125 L 3.78125 -3.984375 C 4.039062 -3.753906 4.171875 -3.4375 4.171875 -3.03125 C 4.171875 -2.75 4.097656 -2.492188 3.953125 -2.265625 C 3.816406 -2.046875 3.613281 -1.867188 3.34375 -1.734375 C 3.070312 -1.609375 2.75 -1.546875 2.375 -1.546875 L 2.203125 -1.546875 C 2.097656 -1.554688 2.019531 -1.5625 1.96875 -1.5625 C 1.863281 -1.5625 1.78125 -1.53125 1.71875 -1.46875 C 1.664062 -1.414062 1.640625 -1.347656 1.640625 -1.265625 C 1.640625 -1.160156 1.675781 -1.082031 1.75 -1.03125 C 1.832031 -0.976562 1.945312 -0.945312 2.09375 -0.9375 L 3.125 -0.90625 C 4.132812 -0.875 4.640625 -0.441406 4.640625 0.390625 C 4.640625 0.691406 4.5625 0.957031 4.40625 1.1875 C 4.257812 1.414062 4.015625 1.597656 3.671875 1.734375 C 3.335938 1.867188 2.90625 1.9375 2.375 1.9375 Z M 2.375 -2.359375 C 2.601562 -2.359375 2.78125 -2.421875 2.90625 -2.546875 C 3.03125 -2.679688 3.09375 -2.867188 3.09375 -3.109375 C 3.09375 -3.347656 3.03125 -3.53125 2.90625 -3.65625 C 2.78125 -3.78125 2.601562 -3.84375 2.375 -3.84375 C 2.15625 -3.84375 1.984375 -3.78125 1.859375 -3.65625 C 1.742188 -3.53125 1.6875 -3.347656 1.6875 -3.109375 C 1.6875 -2.859375 1.742188 -2.671875 1.859375 -2.546875 C 1.984375 -2.421875 2.15625 -2.359375 2.375 -2.359375 Z M 2.375 1.109375 C 2.757812 1.109375 3.039062 1.050781 3.21875 0.9375 C 3.40625 0.832031 3.5 0.691406 3.5 0.515625 C 3.5 0.367188 3.453125 0.257812 3.359375 0.1875 C 3.265625 0.125 3.117188 0.0859375 2.921875 0.078125 L 2.015625 0.046875 C 1.984375 0.046875 1.953125 0.0390625 1.921875 0.03125 C 1.898438 0.03125 1.878906 0.03125 1.859375 0.03125 C 1.660156 0.03125 1.507812 0.0703125 1.40625 0.15625 C 1.3125 0.238281 1.265625 0.351562 1.265625 0.5 C 1.265625 0.695312 1.351562 0.847656 1.53125 0.953125 C 1.71875 1.054688 2 1.109375 2.375 1.109375 Z M 2.375 1.109375 "/></g></g><g transform="translate(75.522506, 30.549536)"><g><path d="M 1.234375 -5.109375 C 1.023438 -5.109375 0.851562 -5.171875 0.71875 -5.296875 C 0.59375 -5.429688 0.53125 -5.597656 0.53125 -5.796875 C 0.53125 -5.984375 0.59375 -6.140625 0.71875 -6.265625 C 0.851562 -6.398438 1.023438 -6.46875 1.234375 -6.46875 C 1.367188 -6.46875 1.488281 -6.4375 1.59375 -6.375 C 1.707031 -6.3125 1.789062 -6.226562 1.84375 -6.125 C 1.90625 -6.03125 1.9375 -5.921875 1.9375 -5.796875 C 1.9375 -5.660156 1.90625 -5.539062 1.84375 -5.4375 C 1.789062 -5.34375 1.707031 -5.265625 1.59375 -5.203125 C 1.488281 -5.140625 1.367188 -5.109375 1.234375 -5.109375 Z M 0.65625 0 L 0.65625 -4.5625 L 1.8125 -4.5625 L 1.8125 0 Z M 0.65625 0 "/></g></g><g transform="translate(77.983033, 30.549536)"><g><path d="M 0.65625 0 L 0.65625 -4.5625 L 1.765625 -4.5625 L 1.765625 -3.890625 L 1.84375 -3.875 C 2.132812 -4.394531 2.597656 -4.65625 3.234375 -4.65625 C 3.753906 -4.65625 4.140625 -4.507812 4.390625 -4.21875 C 4.640625 -3.9375 4.765625 -3.519531 4.765625 -2.96875 L 4.765625 0 L 3.609375 0 L 3.609375 -2.828125 C 3.609375 -3.128906 3.546875 -3.347656 3.421875 -3.484375 C 3.304688 -3.617188 3.113281 -3.6875 2.84375 -3.6875 C 2.519531 -3.6875 2.265625 -3.578125 2.078125 -3.359375 C 1.898438 -3.148438 1.8125 -2.816406 1.8125 -2.359375 L 1.8125 0 Z M 0.65625 0 "/></g></g><g transform="translate(83.334887, 30.549536)"><g><path d="M 1.78125 0.09375 C 1.488281 0.09375 1.234375 0.0390625 1.015625 -0.0625 C 0.804688 -0.175781 0.640625 -0.335938 0.515625 -0.546875 C 0.398438 -0.753906 0.34375 -1.003906 0.34375 -1.296875 C 0.34375 -1.566406 0.398438 -1.789062 0.515625 -1.96875 C 0.640625 -2.15625 0.820312 -2.304688 1.0625 -2.421875 C 1.300781 -2.546875 1.617188 -2.640625 2.015625 -2.703125 C 2.285156 -2.742188 2.488281 -2.789062 2.625 -2.84375 C 2.769531 -2.894531 2.867188 -2.953125 2.921875 -3.015625 C 2.972656 -3.085938 3 -3.175781 3 -3.28125 C 3 -3.425781 2.945312 -3.535156 2.84375 -3.609375 C 2.738281 -3.691406 2.570312 -3.734375 2.34375 -3.734375 C 2.082031 -3.734375 1.835938 -3.675781 1.609375 -3.5625 C 1.378906 -3.445312 1.179688 -3.296875 1.015625 -3.109375 L 0.9375 -3.109375 L 0.453125 -3.84375 C 0.679688 -4.09375 0.960938 -4.289062 1.296875 -4.4375 C 1.628906 -4.582031 1.992188 -4.65625 2.390625 -4.65625 C 2.992188 -4.65625 3.429688 -4.523438 3.703125 -4.265625 C 3.972656 -4.015625 4.109375 -3.648438 4.109375 -3.171875 L 4.109375 -1.1875 C 4.109375 -0.988281 4.203125 -0.890625 4.390625 -0.890625 C 4.453125 -0.890625 4.519531 -0.898438 4.59375 -0.921875 L 4.640625 -0.90625 L 4.734375 -0.109375 C 4.660156 -0.0664062 4.566406 -0.03125 4.453125 0 C 4.347656 0.0195312 4.226562 0.03125 4.09375 0.03125 C 3.8125 0.03125 3.59375 -0.0195312 3.4375 -0.125 C 3.289062 -0.226562 3.1875 -0.394531 3.125 -0.625 L 3.03125 -0.625 C 2.8125 -0.144531 2.394531 0.09375 1.78125 0.09375 Z M 2.140625 -0.765625 C 2.410156 -0.765625 2.625 -0.851562 2.78125 -1.03125 C 2.9375 -1.21875 3.015625 -1.46875 3.015625 -1.78125 L 3.015625 -2.25 L 2.9375 -2.265625 C 2.875 -2.203125 2.785156 -2.148438 2.671875 -2.109375 C 2.554688 -2.078125 2.394531 -2.046875 2.1875 -2.015625 C 1.9375 -1.972656 1.753906 -1.898438 1.640625 -1.796875 C 1.535156 -1.703125 1.484375 -1.5625 1.484375 -1.375 C 1.484375 -1.175781 1.539062 -1.023438 1.65625 -0.921875 C 1.769531 -0.816406 1.929688 -0.765625 2.140625 -0.765625 Z M 2.140625 -0.765625 "/></g></g><g transform="translate(88.152383, 30.549536)"><g><path d="M 1.890625 0.09375 C 1.484375 0.09375 1.171875 -0.015625 0.953125 -0.234375 C 0.734375 -0.460938 0.625 -0.804688 0.625 -1.265625 L 0.625 -6.40625 L 1.78125 -6.40625 L 1.78125 -1.3125 C 1.78125 -1.03125 1.894531 -0.890625 2.125 -0.890625 C 2.1875 -0.890625 2.257812 -0.898438 2.34375 -0.921875 L 2.390625 -0.90625 L 2.5 -0.015625 C 2.4375 0.015625 2.351562 0.0390625 2.25 0.0625 C 2.144531 0.0820312 2.023438 0.09375 1.890625 0.09375 Z M 1.890625 0.09375 "/></g></g><g transform="translate(90.778602, 30.549536)"><g/></g><g transform="translate(92.779334, 30.549536)"><g><path d="M 1.234375 -5.109375 C 1.023438 -5.109375 0.851562 -5.171875 0.71875 -5.296875 C 0.59375 -5.429688 0.53125 -5.597656 0.53125 -5.796875 C 0.53125 -5.984375 0.59375 -6.140625 0.71875 -6.265625 C 0.851562 -6.398438 1.023438 -6.46875 1.234375 -6.46875 C 1.367188 -6.46875 1.488281 -6.4375 1.59375 -6.375 C 1.707031 -6.3125 1.789062 -6.226562 1.84375 -6.125 C 1.90625 -6.03125 1.9375 -5.921875 1.9375 -5.796875 C 1.9375 -5.660156 1.90625 -5.539062 1.84375 -5.4375 C 1.789062 -5.34375 1.707031 -5.265625 1.59375 -5.203125 C 1.488281 -5.140625 1.367188 -5.109375 1.234375 -5.109375 Z M 0.65625 0 L 0.65625 -4.5625 L 1.8125 -4.5625 L 1.8125 0 Z M 0.65625 0 "/></g></g><g transform="translate(95.239861, 30.549536)"><g><path d="M 0.65625 0 L 0.65625 -4.5625 L 1.765625 -4.5625 L 1.765625 -3.953125 L 1.84375 -3.9375 C 2 -4.1875 2.175781 -4.367188 2.375 -4.484375 C 2.570312 -4.597656 2.828125 -4.65625 3.140625 -4.65625 C 3.484375 -4.65625 3.757812 -4.585938 3.96875 -4.453125 C 4.175781 -4.316406 4.332031 -4.117188 4.4375 -3.859375 L 4.515625 -3.859375 C 4.660156 -4.128906 4.84375 -4.328125 5.0625 -4.453125 C 5.28125 -4.585938 5.554688 -4.65625 5.890625 -4.65625 C 6.835938 -4.65625 7.3125 -4.128906 7.3125 -3.078125 L 7.3125 0 L 6.171875 0 L 6.171875 -2.921875 C 6.171875 -3.191406 6.117188 -3.382812 6.015625 -3.5 C 5.910156 -3.625 5.738281 -3.6875 5.5 -3.6875 C 4.875 -3.6875 4.5625 -3.265625 4.5625 -2.421875 L 4.5625 0 L 3.40625 0 L 3.40625 -2.921875 C 3.40625 -3.191406 3.351562 -3.382812 3.25 -3.5 C 3.144531 -3.625 2.976562 -3.6875 2.75 -3.6875 C 2.445312 -3.6875 2.210938 -3.585938 2.046875 -3.390625 C 1.890625 -3.191406 1.8125 -2.878906 1.8125 -2.453125 L 1.8125 0 Z M 0.65625 0 "/></g></g><g transform="translate(103.143373, 30.549536)"><g><path d="M 1.78125 0.09375 C 1.488281 0.09375 1.234375 0.0390625 1.015625 -0.0625 C 0.804688 -0.175781 0.640625 -0.335938 0.515625 -0.546875 C 0.398438 -0.753906 0.34375 -1.003906 0.34375 -1.296875 C 0.34375 -1.566406 0.398438 -1.789062 0.515625 -1.96875 C 0.640625 -2.15625 0.820312 -2.304688 1.0625 -2.421875 C 1.300781 -2.546875 1.617188 -2.640625 2.015625 -2.703125 C 2.285156 -2.742188 2.488281 -2.789062 2.625 -2.84375 C 2.769531 -2.894531 2.867188 -2.953125 2.921875 -3.015625 C 2.972656 -3.085938 3 -3.175781 3 -3.28125 C 3 -3.425781 2.945312 -3.535156 2.84375 -3.609375 C 2.738281 -3.691406 2.570312 -3.734375 2.34375 -3.734375 C 2.082031 -3.734375 1.835938 -3.675781 1.609375 -3.5625 C 1.378906 -3.445312 1.179688 -3.296875 1.015625 -3.109375 L 0.9375 -3.109375 L 0.453125 -3.84375 C 0.679688 -4.09375 0.960938 -4.289062 1.296875 -4.4375 C 1.628906 -4.582031 1.992188 -4.65625 2.390625 -4.65625 C 2.992188 -4.65625 3.429688 -4.523438 3.703125 -4.265625 C 3.972656 -4.015625 4.109375 -3.648438 4.109375 -3.171875 L 4.109375 -1.1875 C 4.109375 -0.988281 4.203125 -0.890625 4.390625 -0.890625 C 4.453125 -0.890625 4.519531 -0.898438 4.59375 -0.921875 L 4.640625 -0.90625 L 4.734375 -0.109375 C 4.660156 -0.0664062 4.566406 -0.03125 4.453125 0 C 4.347656 0.0195312 4.226562 0.03125 4.09375 0.03125 C 3.8125 0.03125 3.59375 -0.0195312 3.4375 -0.125 C 3.289062 -0.226562 3.1875 -0.394531 3.125 -0.625 L 3.03125 -0.625 C 2.8125 -0.144531 2.394531 0.09375 1.78125 0.09375 Z M 2.140625 -0.765625 C 2.410156 -0.765625 2.625 -0.851562 2.78125 -1.03125 C 2.9375 -1.21875 3.015625 -1.46875 3.015625 -1.78125 L 3.015625 -2.25 L 2.9375 -2.265625 C 2.875 -2.203125 2.785156 -2.148438 2.671875 -2.109375 C 2.554688 -2.078125 2.394531 -2.046875 2.1875 -2.015625 C 1.9375 -1.972656 1.753906 -1.898438 1.640625 -1.796875 C 1.535156 -1.703125 1.484375 -1.5625 1.484375 -1.375 C 1.484375 -1.175781 1.539062 -1.023438 1.65625 -0.921875 C 1.769531 -0.816406 1.929688 -0.765625 2.140625 -0.765625 Z M 2.140625 -0.765625 "/></g></g><g transform="translate(107.960869, 30.549536)"><g><path d="M 2.375 1.9375 C 1.613281 1.9375 1.050781 1.828125 0.6875 1.609375 C 0.332031 1.390625 0.15625 1.082031 0.15625 0.6875 C 0.15625 0.445312 0.234375 0.25 0.390625 0.09375 C 0.546875 -0.0625 0.765625 -0.164062 1.046875 -0.21875 L 1.046875 -0.296875 C 0.890625 -0.390625 0.78125 -0.492188 0.71875 -0.609375 C 0.65625 -0.722656 0.625 -0.859375 0.625 -1.015625 C 0.625 -1.378906 0.859375 -1.625 1.328125 -1.75 L 1.328125 -1.84375 C 1.085938 -1.988281 0.90625 -2.164062 0.78125 -2.375 C 0.65625 -2.582031 0.59375 -2.832031 0.59375 -3.125 C 0.59375 -3.425781 0.660156 -3.691406 0.796875 -3.921875 C 0.941406 -4.148438 1.144531 -4.328125 1.40625 -4.453125 C 1.675781 -4.585938 2 -4.65625 2.375 -4.65625 C 2.757812 -4.65625 3.066406 -4.585938 3.296875 -4.453125 C 3.429688 -4.660156 3.507812 -4.898438 3.53125 -5.171875 L 3.625 -5.21875 L 4.453125 -5.015625 C 4.421875 -4.796875 4.351562 -4.613281 4.25 -4.46875 C 4.15625 -4.320312 4 -4.191406 3.78125 -4.078125 L 3.78125 -3.984375 C 4.039062 -3.753906 4.171875 -3.4375 4.171875 -3.03125 C 4.171875 -2.75 4.097656 -2.492188 3.953125 -2.265625 C 3.816406 -2.046875 3.613281 -1.867188 3.34375 -1.734375 C 3.070312 -1.609375 2.75 -1.546875 2.375 -1.546875 L 2.203125 -1.546875 C 2.097656 -1.554688 2.019531 -1.5625 1.96875 -1.5625 C 1.863281 -1.5625 1.78125 -1.53125 1.71875 -1.46875 C 1.664062 -1.414062 1.640625 -1.347656 1.640625 -1.265625 C 1.640625 -1.160156 1.675781 -1.082031 1.75 -1.03125 C 1.832031 -0.976562 1.945312 -0.945312 2.09375 -0.9375 L 3.125 -0.90625 C 4.132812 -0.875 4.640625 -0.441406 4.640625 0.390625 C 4.640625 0.691406 4.5625 0.957031 4.40625 1.1875 C 4.257812 1.414062 4.015625 1.597656 3.671875 1.734375 C 3.335938 1.867188 2.90625 1.9375 2.375 1.9375 Z M 2.375 -2.359375 C 2.601562 -2.359375 2.78125 -2.421875 2.90625 -2.546875 C 3.03125 -2.679688 3.09375 -2.867188 3.09375 -3.109375 C 3.09375 -3.347656 3.03125 -3.53125 2.90625 -3.65625 C 2.78125 -3.78125 2.601562 -3.84375 2.375 -3.84375 C 2.15625 -3.84375 1.984375 -3.78125 1.859375 -3.65625 C 1.742188 -3.53125 1.6875 -3.347656 1.6875 -3.109375 C 1.6875 -2.859375 1.742188 -2.671875 1.859375 -2.546875 C 1.984375 -2.421875 2.15625 -2.359375 2.375 -2.359375 Z M 2.375 1.109375 C 2.757812 1.109375 3.039062 1.050781 3.21875 0.9375 C 3.40625 0.832031 3.5 0.691406 3.5 0.515625 C 3.5 0.367188 3.453125 0.257812 3.359375 0.1875 C 3.265625 0.125 3.117188 0.0859375 2.921875 0.078125 L 2.015625 0.046875 C 1.984375 0.046875 1.953125 0.0390625 1.921875 0.03125 C 1.898438 0.03125 1.878906 0.03125 1.859375 0.03125 C 1.660156 0.03125 1.507812 0.0703125 1.40625 0.15625 C 1.3125 0.238281 1.265625 0.351562 1.265625 0.5 C 1.265625 0.695312 1.351562 0.847656 1.53125 0.953125 C 1.71875 1.054688 2 1.109375 2.375 1.109375 Z M 2.375 1.109375 "/></g></g><g transform="translate(112.712089, 30.549536)"><g><path d="M 4.515625 -2.03125 L 1.578125 -2.03125 C 1.609375 -1.625 1.71875 -1.332031 1.90625 -1.15625 C 2.101562 -0.976562 2.367188 -0.890625 2.703125 -0.890625 C 2.972656 -0.890625 3.1875 -0.9375 3.34375 -1.03125 C 3.507812 -1.132812 3.640625 -1.285156 3.734375 -1.484375 L 3.828125 -1.484375 L 4.59375 -0.984375 C 4.4375 -0.671875 4.207031 -0.410156 3.90625 -0.203125 C 3.613281 -0.00390625 3.210938 0.09375 2.703125 0.09375 C 2.234375 0.09375 1.828125 0.00390625 1.484375 -0.171875 C 1.140625 -0.359375 0.875 -0.628906 0.6875 -0.984375 C 0.5 -1.335938 0.40625 -1.769531 0.40625 -2.28125 C 0.40625 -2.800781 0.503906 -3.238281 0.703125 -3.59375 C 0.898438 -3.945312 1.164062 -4.210938 1.5 -4.390625 C 1.832031 -4.566406 2.207031 -4.65625 2.625 -4.65625 C 3.269531 -4.65625 3.765625 -4.484375 4.109375 -4.140625 C 4.453125 -3.796875 4.625 -3.296875 4.625 -2.640625 C 4.625 -2.398438 4.617188 -2.210938 4.609375 -2.078125 Z M 3.53125 -2.765625 C 3.519531 -3.117188 3.4375 -3.375 3.28125 -3.53125 C 3.132812 -3.6875 2.914062 -3.765625 2.625 -3.765625 C 2.039062 -3.765625 1.703125 -3.429688 1.609375 -2.765625 Z M 3.53125 -2.765625 "/></g></g></g><g clip-path="url(#67a0bda212)"><path stroke-linecap="butt" transform="matrix(0.746849, 0, 0, 0.746849, 43.976063, 93.685414)" fill="none" stroke-linejoin="miter" d="M 0.497548 13.167483 L 98.184044 13.167483 " stroke="#545454" stroke-width="1" stroke-opacity="1" stroke-miterlimit="4"/></g><g clip-path="url(#a0b7be1eff)"><path stroke-linecap="round" transform="matrix(0.746849, 0, 0, 0.746849, 43.976063, 93.685414)" fill="none" stroke-linejoin="round" d="M 2.500757 11.666384 L 0.497548 13.167483 L 2.500757 14.668582 " stroke="#545454" stroke-width="1" stroke-opacity="1" stroke-miterlimit="4"/></g><g clip-path="url(#e60ad7669e)"><path stroke-linecap="round" transform="matrix(0.746849, 0, 0, 0.746849, 43.976063, 93.685414)" fill="none" stroke-linejoin="round" d="M 96.186066 11.666384 L 98.184044 13.167483 L 96.186066 14.668582 " stroke="#545454" stroke-width="1" stroke-opacity="1" stroke-miterlimit="4"/></g><g fill="#545454" fill-opacity="1"><g transform="translate(77.770971, 107.525832)"><g><path d="M 3.390625 0.109375 C 2.867188 0.109375 2.398438 -0.00390625 1.984375 -0.234375 C 1.566406 -0.472656 1.238281 -0.820312 1 -1.28125 C 0.757812 -1.75 0.640625 -2.304688 0.640625 -2.953125 C 0.640625 -3.597656 0.757812 -4.148438 1 -4.609375 C 1.238281 -5.078125 1.566406 -5.425781 1.984375 -5.65625 C 2.398438 -5.894531 2.867188 -6.015625 3.390625 -6.015625 C 4.015625 -6.015625 4.507812 -5.894531 4.875 -5.65625 C 5.25 -5.425781 5.519531 -5.113281 5.6875 -4.71875 L 5.09375 -4.296875 L 4.984375 -4.296875 C 4.816406 -4.617188 4.609375 -4.851562 4.359375 -5 C 4.109375 -5.15625 3.785156 -5.234375 3.390625 -5.234375 C 3.023438 -5.234375 2.703125 -5.144531 2.421875 -4.96875 C 2.148438 -4.800781 1.9375 -4.546875 1.78125 -4.203125 C 1.632812 -3.867188 1.5625 -3.453125 1.5625 -2.953125 C 1.5625 -2.460938 1.640625 -2.046875 1.796875 -1.703125 C 1.953125 -1.359375 2.164062 -1.097656 2.4375 -0.921875 C 2.707031 -0.753906 3.023438 -0.671875 3.390625 -0.671875 C 3.796875 -0.671875 4.132812 -0.757812 4.40625 -0.9375 C 4.675781 -1.125 4.890625 -1.421875 5.046875 -1.828125 L 5.15625 -1.828125 L 5.734375 -1.484375 C 5.578125 -0.992188 5.300781 -0.601562 4.90625 -0.3125 C 4.507812 -0.03125 4.003906 0.109375 3.390625 0.109375 Z M 3.390625 0.109375 "/></g></g></g><g clip-path="url(#f45442970d)"><path stroke-linecap="butt" transform="matrix(0, -0.746849, 0.746849, 0, 114.983743, 98.765911)" fill="none" stroke-linejoin="miter" d="M 0.502493 13.165536 L 57.926064 13.165536 " stroke="#545454" stroke-width="1" stroke-opacity="1" stroke-miterlimit="4"/></g><g clip-path="url(#17dfbcb6f3)"><path stroke-linecap="round" transform="matrix(0, -0.746849, 0.746849, 0, 114.983743, 98.765911)" fill="none" stroke-linejoin="round" d="M 2.500471 11.664437 L 0.502493 13.165536 L 2.500471 14.666635 " stroke="#545454" stroke-width="1" stroke-opacity="1" stroke-miterlimit="4"/></g><g clip-path="url(#70d2f26e55)"><path stroke-linecap="round" transform="matrix(0, -0.746849, 0.746849, 0, 114.983743, 98.765911)" fill="none" stroke-linejoin="round" d="M 55.922856 11.664437 L 57.926064 13.165536 L 55.922856 14.666635 " stroke="#545454" stroke-width="1" stroke-opacity="1" stroke-miterlimit="4"/></g><g fill="#545454" fill-opacity="1"><g transform="translate(120.80645, 73.279698)"><g><path d="M -0.109375 3.0625 C -0.109375 2.582031 0 2.160156 0.21875 1.796875 C 0.445312 1.441406 0.789062 1.160156 1.25 0.953125 C 1.707031 0.742188 2.273438 0.640625 2.953125 0.640625 C 3.628906 0.640625 4.195312 0.75 4.65625 0.96875 C 5.113281 1.1875 5.453125 1.484375 5.671875 1.859375 C 5.898438 2.234375 6.015625 2.671875 6.015625 3.171875 C 6.015625 3.554688 5.941406 3.90625 5.796875 4.21875 C 5.648438 4.539062 5.40625 4.8125 5.0625 5.03125 L 5.09375 5.140625 L 8.28125 5.140625 L 8.28125 6.015625 L 0 6.015625 L 0 5.140625 L 0.859375 5.140625 L 0.890625 5.03125 C 0.585938 4.84375 0.34375 4.582031 0.15625 4.25 C -0.0195312 3.914062 -0.109375 3.519531 -0.109375 3.0625 Z M 0.671875 3.34375 C 0.671875 3.882812 0.859375 4.316406 1.234375 4.640625 C 1.609375 4.972656 2.179688 5.140625 2.953125 5.140625 C 3.722656 5.140625 4.296875 4.972656 4.671875 4.640625 C 5.046875 4.316406 5.234375 3.882812 5.234375 3.34375 C 5.234375 2.769531 5.050781 2.328125 4.6875 2.015625 C 4.320312 1.710938 3.742188 1.5625 2.953125 1.5625 C 1.429688 1.5625 0.671875 2.15625 0.671875 3.34375 Z M 0.671875 3.34375 "/></g></g></g><path fill="#000000" d="M 16.234375 55.332031 L 17.726562 55.332031 C 17.832031 55.332031 17.917969 55.371094 17.992188 55.441406 C 18.066406 55.515625 18.101562 55.605469 18.101562 55.707031 C 18.101562 55.808594 18.066406 55.898438 17.992188 55.972656 C 17.917969 56.042969 17.832031 56.082031 17.726562 56.082031 L 16.234375 56.082031 C 16.128906 56.082031 16.042969 56.042969 15.96875 55.972656 C 15.898438 55.898438 15.859375 55.808594 15.859375 55.707031 C 15.859375 55.605469 15.898438 55.515625 15.96875 55.441406 C 16.042969 55.371094 16.128906 55.332031 16.234375 55.332031 Z M 19.222656 55.332031 L 20.714844 55.332031 C 20.816406 55.332031 20.90625 55.371094 20.980469 55.441406 C 21.050781 55.515625 21.089844 55.605469 21.089844 55.707031 C 21.089844 55.808594 21.050781 55.898438 20.980469 55.972656 C 20.90625 56.042969 20.816406 56.082031 20.714844 56.082031 L 19.222656 56.082031 C 19.117188 56.082031 19.03125 56.042969 18.957031 55.972656 C 18.882812 55.898438 18.847656 55.808594 18.847656 55.707031 C 18.847656 55.605469 18.882812 55.515625 18.957031 55.441406 C 19.03125 55.371094 19.117188 55.332031 19.222656 55.332031 Z M 22.207031 55.332031 L 23.703125 55.332031 C 23.804688 55.332031 23.894531 55.371094 23.964844 55.441406 C 24.039062 55.515625 24.074219 55.605469 24.074219 55.707031 C 24.074219 55.808594 24.039062 55.898438 23.964844 55.972656 C 23.894531 56.042969 23.804688 56.082031 23.703125 56.082031 L 22.207031 56.082031 C 22.105469 56.082031 22.015625 56.042969 21.945312 55.972656 C 21.871094 55.898438 21.835938 55.808594 21.835938 55.707031 C 21.835938 55.605469 21.871094 55.515625 21.945312 55.441406 C 22.015625 55.371094 22.105469 55.332031 22.207031 55.332031 Z M 25.195312 55.332031 L 26.691406 55.332031 C 26.792969 55.332031 26.882812 55.371094 26.953125 55.441406 C 27.027344 55.515625 27.0625 55.605469 27.0625 55.707031 C 27.0625 55.808594 27.027344 55.898438 26.953125 55.972656 C 26.882812 56.042969 26.792969 56.082031 26.691406 56.082031 L 25.195312 56.082031 C 25.09375 56.082031 25.003906 56.042969 24.933594 55.972656 C 24.859375 55.898438 24.824219 55.808594 24.824219 55.707031 C 24.824219 55.605469 24.859375 55.515625 24.933594 55.441406 C 25.003906 55.371094 25.09375 55.332031 25.195312 55.332031 Z M 28.183594 55.332031 L 29.675781 55.332031 C 29.78125 55.332031 29.867188 55.371094 29.941406 55.441406 C 30.015625 55.515625 30.050781 55.605469 30.050781 55.707031 C 30.050781 55.808594 30.015625 55.898438 29.941406 55.972656 C 29.867188 56.042969 29.78125 56.082031 29.675781 56.082031 L 28.183594 56.082031 C 28.082031 56.082031 27.992188 56.042969 27.917969 55.972656 C 27.847656 55.898438 27.808594 55.808594 27.808594 55.707031 C 27.808594 55.605469 27.847656 55.515625 27.917969 55.441406 C 27.992188 55.371094 28.082031 55.332031 28.183594 55.332031 Z M 31.171875 55.332031 L 32.664062 55.332031 C 32.769531 55.332031 32.855469 55.371094 32.929688 55.441406 C 33 55.515625 33.039062 55.605469 33.039062 55.707031 C 33.039062 55.808594 33 55.898438 32.929688 55.972656 C 32.855469 56.042969 32.769531 56.082031 32.664062 56.082031 L 31.171875 56.082031 C 31.066406 56.082031 30.980469 56.042969 30.90625 55.972656 C 30.832031 55.898438 30.796875 55.808594 30.796875 55.707031 C 30.796875 55.605469 30.832031 55.515625 30.90625 55.441406 C 30.980469 55.371094 31.066406 55.332031 31.171875 55.332031 Z M 34.160156 55.332031 L 35.652344 55.332031 C 35.753906 55.332031 35.84375 55.371094 35.914062 55.441406 C 35.988281 55.515625 36.023438 55.605469 36.023438 55.707031 C 36.023438 55.808594 35.988281 55.898438 35.914062 55.972656 C 35.84375 56.042969 35.753906 56.082031 35.652344 56.082031 L 34.160156 56.082031 C 34.054688 56.082031 33.96875 56.042969 33.894531 55.972656 C 33.820312 55.898438 33.785156 55.808594 33.785156 55.707031 C 33.785156 55.605469 33.820312 55.515625 33.894531 55.441406 C 33.96875 55.371094 34.054688 55.332031 34.160156 55.332031 Z M 37.144531 55.332031 L 38.640625 55.332031 C 38.742188 55.332031 38.832031 55.371094 38.902344 55.441406 C 38.976562 55.515625 39.011719 55.605469 39.011719 55.707031 C 39.011719 55.808594 38.976562 55.898438 38.902344 55.972656 C 38.832031 56.042969 38.742188 56.082031 38.640625 56.082031 L 37.144531 56.082031 C 37.042969 56.082031 36.953125 56.042969 36.882812 55.972656 C 36.808594 55.898438 36.773438 55.808594 36.773438 55.707031 C 36.773438 55.605469 36.808594 55.515625 36.882812 55.441406 C 36.953125 55.371094 37.042969 55.332031 37.144531 55.332031 Z M 40.132812 55.332031 L 41.625 55.332031 C 41.730469 55.332031 41.816406 55.371094 41.890625 55.441406 C 41.964844 55.515625 42 55.605469 42 55.707031 C 42 55.808594 41.964844 55.898438 41.890625 55.972656 C 41.816406 56.042969 41.730469 56.082031 41.625 56.082031 L 40.132812 56.082031 C 40.03125 56.082031 39.941406 56.042969 39.867188 55.972656 C 39.796875 55.898438 39.757812 55.808594 39.757812 55.707031 C 39.757812 55.605469 39.796875 55.515625 39.867188 55.441406 C 39.941406 55.371094 40.03125 55.332031 40.132812 55.332031 Z M 43.121094 55.332031 L 44.613281 55.332031 C 44.71875 55.332031 44.804688 55.371094 44.878906 55.441406 C 44.949219 55.515625 44.988281 55.605469 44.988281 55.707031 C 44.988281 55.808594 44.949219 55.898438 44.878906 55.972656 C 44.804688 56.042969 44.71875 56.082031 44.613281 56.082031 L 43.121094 56.082031 C 43.015625 56.082031 42.929688 56.042969 42.855469 55.972656 C 42.785156 55.898438 42.746094 55.808594 42.746094 55.707031 C 42.746094 55.605469 42.785156 55.515625 42.855469 55.441406 C 42.929688 55.371094 43.015625 55.332031 43.121094 55.332031 Z M 43.121094 55.332031 " fill-opacity="1" fill-rule="nonzero"/><path fill="#00bf63" d="M 7.539062 16.496094 L 9.03125 16.496094 C 9.136719 16.496094 9.222656 16.535156 9.296875 16.605469 C 9.371094 16.679688 9.40625 16.769531 9.40625 16.871094 C 9.40625 16.972656 9.371094 17.0625 9.296875 17.136719 C 9.222656 17.207031 9.136719 17.246094 9.03125 17.246094 L 7.539062 17.246094 C 7.4375 17.246094 7.347656 17.207031 7.273438 17.136719 C 7.203125 17.0625 7.164062 16.972656 7.164062 16.871094 C 7.164062 16.769531 7.203125 16.679688 7.273438 16.605469 C 7.347656 16.535156 7.4375 16.496094 7.539062 16.496094 Z M 10.527344 16.496094 L 12.019531 16.496094 C 12.121094 16.496094 12.210938 16.535156 12.285156 16.605469 C 12.355469 16.679688 12.394531 16.769531 12.394531 16.871094 C 12.394531 16.972656 12.355469 17.0625 12.285156 17.136719 C 12.210938 17.207031 12.121094 17.246094 12.019531 17.246094 L 10.527344 17.246094 C 10.421875 17.246094 10.335938 17.207031 10.261719 17.136719 C 10.1875 17.0625 10.152344 16.972656 10.152344 16.871094 C 10.152344 16.769531 10.1875 16.679688 10.261719 16.605469 C 10.335938 16.535156 10.421875 16.496094 10.527344 16.496094 Z M 13.511719 16.496094 L 15.007812 16.496094 C 15.109375 16.496094 15.199219 16.535156 15.269531 16.605469 C 15.34375 16.679688 15.378906 16.769531 15.378906 16.871094 C 15.378906 16.972656 15.34375 17.0625 15.269531 17.136719 C 15.199219 17.207031 15.109375 17.246094 15.007812 17.246094 L 13.511719 17.246094 C 13.410156 17.246094 13.324219 17.207031 13.25 17.136719 C 13.175781 17.0625 13.140625 16.972656 13.140625 16.871094 C 13.140625 16.769531 13.175781 16.679688 13.25 16.605469 C 13.324219 16.535156 13.410156 16.496094 13.511719 16.496094 Z M 13.511719 16.496094 " fill-opacity="1" fill-rule="nonzero"/><path fill="#000000" d="M 44.347656 17.105469 L 44.347656 18.597656 C 44.347656 18.699219 44.3125 18.789062 44.238281 18.863281 C 44.167969 18.933594 44.078125 18.972656 43.976562 18.972656 C 43.871094 18.972656 43.785156 18.933594 43.710938 18.863281 C 43.636719 18.789062 43.601562 18.699219 43.601562 18.597656 L 43.601562 17.105469 C 43.601562 17 43.636719 16.914062 43.710938 16.839844 C 43.785156 16.765625 43.871094 16.730469 43.976562 16.730469 C 44.078125 16.730469 44.167969 16.765625 44.238281 16.839844 C 44.3125 16.914062 44.347656 17 44.347656 17.105469 Z M 44.347656 20.089844 L 44.347656 21.585938 C 44.347656 21.6875 44.3125 21.777344 44.238281 21.847656 C 44.167969 21.921875 44.078125 21.957031 43.976562 21.957031 C 43.871094 21.957031 43.785156 21.921875 43.710938 21.847656 C 43.636719 21.777344 43.601562 21.6875 43.601562 21.585938 L 43.601562 20.089844 C 43.601562 19.988281 43.636719 19.898438 43.710938 19.828125 C 43.785156 19.753906 43.871094 19.71875 43.976562 19.71875 C 44.078125 19.71875 44.167969 19.753906 44.238281 19.828125 C 44.3125 19.898438 44.347656 19.988281 44.347656 20.089844 Z M 44.347656 23.078125 L 44.347656 24.570312 C 44.347656 24.675781 44.3125 24.761719 44.238281 24.835938 C 44.167969 24.910156 44.078125 24.945312 43.976562 24.945312 C 43.871094 24.945312 43.785156 24.910156 43.710938 24.835938 C 43.636719 24.761719 43.601562 24.675781 43.601562 24.570312 L 43.601562 23.078125 C 43.601562 22.976562 43.636719 22.886719 43.710938 22.816406 C 43.785156 22.742188 43.871094 22.707031 43.976562 22.707031 C 44.078125 22.707031 44.167969 22.742188 44.238281 22.816406 C 44.3125 22.886719 44.347656 22.976562 44.347656 23.078125 Z M 44.347656 26.066406 L 44.347656 27.558594 C 44.347656 27.664062 44.3125 27.75 44.238281 27.824219 C 44.167969 27.898438 44.078125 27.933594 43.976562 27.933594 C 43.871094 27.933594 43.785156 27.898438 43.710938 27.824219 C 43.636719 27.75 43.601562 27.664062 43.601562 27.558594 L 43.601562 26.066406 C 43.601562 25.960938 43.636719 25.875 43.710938 25.800781 C 43.785156 25.730469 43.871094 25.691406 43.976562 25.691406 C 44.078125 25.691406 44.167969 25.730469 44.238281 25.800781 C 44.3125 25.875 44.347656 25.960938 44.347656 26.066406 Z M 44.347656 29.054688 L 44.347656 30.546875 C 44.347656 30.648438 44.3125 30.738281 44.238281 30.8125 C 44.167969 30.882812 44.078125 30.921875 43.976562 30.921875 C 43.871094 30.921875 43.785156 30.882812 43.710938 30.8125 C 43.636719 30.738281 43.601562 30.648438 43.601562 30.546875 L 43.601562 29.054688 C 43.601562 28.949219 43.636719 28.863281 43.710938 28.789062 C 43.785156 28.714844 43.871094 28.679688 43.976562 28.679688 C 44.078125 28.679688 44.167969 28.714844 44.238281 28.789062 C 44.3125 28.863281 44.347656 28.949219 44.347656 29.054688 Z M 44.347656 32.039062 L 44.347656 33.535156 C 44.347656 33.636719 44.3125 33.726562 44.238281 33.796875 C 44.167969 33.871094 44.078125 33.90625 43.976562 33.90625 C 43.871094 33.90625 43.785156 33.871094 43.710938 33.796875 C 43.636719 33.726562 43.601562 33.636719 43.601562 33.535156 L 43.601562 32.039062 C 43.601562 31.9375 43.636719 31.847656 43.710938 31.777344 C 43.785156 31.703125 43.871094 31.667969 43.976562 31.667969 C 44.078125 31.667969 44.167969 31.703125 44.238281 31.777344 C 44.3125 31.847656 44.347656 31.9375 44.347656 32.039062 Z M 44.347656 35.027344 L 44.347656 36.523438 C 44.347656 36.625 44.3125 36.714844 44.238281 36.785156 C 44.167969 36.859375 44.078125 36.894531 43.976562 36.894531 C 43.871094 36.894531 43.785156 36.859375 43.710938 36.785156 C 43.636719 36.714844 43.601562 36.625 43.601562 36.523438 L 43.601562 35.027344 C 43.601562 34.925781 43.636719 34.835938 43.710938 34.765625 C 43.785156 34.691406 43.871094 34.65625 43.976562 34.65625 C 44.078125 34.65625 44.167969 34.691406 44.238281 34.765625 C 44.3125 34.835938 44.347656 34.925781 44.347656 35.027344 Z M 44.347656 38.015625 L 44.347656 39.507812 C 44.347656 39.613281 44.3125 39.699219 44.238281 39.773438 C 44.167969 39.847656 44.078125 39.882812 43.976562 39.882812 C 43.871094 39.882812 43.785156 39.847656 43.710938 39.773438 C 43.636719 39.699219 43.601562 39.613281 43.601562 39.507812 L 43.601562 38.015625 C 43.601562 37.914062 43.636719 37.824219 43.710938 37.75 C 43.785156 37.679688 43.871094 37.640625 43.976562 37.640625 C 44.078125 37.640625 44.167969 37.679688 44.238281 37.75 C 44.3125 37.824219 44.347656 37.914062 44.347656 38.015625 Z M 44.347656 41.003906 L 44.347656 42.496094 C 44.347656 42.601562 44.3125 42.6875 44.238281 42.761719 C 44.167969 42.832031 44.078125 42.871094 43.976562 42.871094 C 43.871094 42.871094 43.785156 42.832031 43.710938 42.761719 C 43.636719 42.6875 43.601562 42.601562 43.601562 42.496094 L 43.601562 41.003906 C 43.601562 40.898438 43.636719 40.8125 43.710938 40.738281 C 43.785156 40.664062 43.871094 40.628906 43.976562 40.628906 C 44.078125 40.628906 44.167969 40.664062 44.238281 40.738281 C 44.3125 40.8125 44.347656 40.898438 44.347656 41.003906 Z M 44.347656 43.992188 L 44.347656 45.484375 C 44.347656 45.585938 44.3125 45.675781 44.238281 45.75 C 44.167969 45.820312 44.078125 45.859375 43.976562 45.859375 C 43.871094 45.859375 43.785156 45.820312 43.710938 45.75 C 43.636719 45.675781 43.601562 45.585938 43.601562 45.484375 L 43.601562 43.992188 C 43.601562 43.886719 43.636719 43.800781 43.710938 43.726562 C 43.785156 43.652344 43.871094 43.617188 43.976562 43.617188 C 44.078125 43.617188 44.167969 43.652344 44.238281 43.726562 C 44.3125 43.800781 44.347656 43.886719 44.347656 43.992188 Z M 44.347656 46.976562 L 44.347656 48.472656 C 44.347656 48.574219 44.3125 48.664062 44.238281 48.734375 C 44.167969 48.808594 44.078125 48.84375 43.976562 48.84375 C 43.871094 48.84375 43.785156 48.808594 43.710938 48.734375 C 43.636719 48.664062 43.601562 48.574219 43.601562 48.472656 L 43.601562 46.976562 C 43.601562 46.875 43.636719 46.785156 43.710938 46.714844 C 43.785156 46.640625 43.871094 46.605469 43.976562 46.605469 C 44.078125 46.605469 44.167969 46.640625 44.238281 46.714844 C 44.3125 46.785156 44.347656 46.875 44.347656 46.976562 Z M 44.347656 49.964844 L 44.347656 51.457031 C 44.347656 51.5625 44.3125 51.648438 44.238281 51.722656 C 44.167969 51.796875 44.078125 51.832031 43.976562 51.832031 C 43.871094 51.832031 43.785156 51.796875 43.710938 51.722656 C 43.636719 51.648438 43.601562 51.5625 43.601562 51.457031 L 43.601562 49.964844 C 43.601562 49.863281 43.636719 49.773438 43.710938 49.699219 C 43.785156 49.628906 43.871094 49.589844 43.976562 49.589844 C 44.078125 49.589844 44.167969 49.628906 44.238281 49.699219 C 44.3125 49.773438 44.347656 49.863281 44.347656 49.964844 Z M 44.347656 52.953125 L 44.347656 54.445312 C 44.347656 54.550781 44.3125 54.636719 44.238281 54.710938 C 44.167969 54.78125 44.078125 54.820312 43.976562 54.820312 C 43.871094 54.820312 43.785156 54.78125 43.710938 54.710938 C 43.636719 54.636719 43.601562 54.550781 43.601562 54.445312 L 43.601562 52.953125 C 43.601562 52.847656 43.636719 52.761719 43.710938 52.6875 C 43.785156 52.617188 43.871094 52.578125 43.976562 52.578125 C 44.078125 52.578125 44.167969 52.617188 44.238281 52.6875 C 44.3125 52.761719 44.347656 52.847656 44.347656 52.953125 Z M 44.347656 52.953125 " fill-opacity="1" fill-rule="nonzero"/><g clip-path="url(#f320379dd4)"><path fill="#737373" d="M 43.976562 55.136719 L 117.609375 55.136719 L 117.609375 98.769531 L 43.976562 98.769531 Z M 43.976562 55.136719 " fill-opacity="1" fill-rule="nonzero"/></g><g fill="#d9d9d9" fill-opacity="1"><g transform="translate(62.89234, 73.80609)"><g><path d="M 3.109375 0.078125 C 2.585938 0.078125 2.125 -0.03125 1.71875 -0.25 C 1.320312 -0.46875 1.007812 -0.796875 0.78125 -1.234375 C 0.5625 -1.671875 0.453125 -2.207031 0.453125 -2.84375 C 0.453125 -3.488281 0.5625 -4.023438 0.78125 -4.453125 C 1.007812 -4.890625 1.320312 -5.21875 1.71875 -5.4375 C 2.125 -5.65625 2.585938 -5.765625 3.109375 -5.765625 C 3.660156 -5.765625 4.125 -5.65625 4.5 -5.4375 C 4.882812 -5.226562 5.160156 -4.90625 5.328125 -4.46875 L 4.5 -3.96875 L 4.40625 -3.96875 C 4.28125 -4.269531 4.113281 -4.484375 3.90625 -4.609375 C 3.695312 -4.734375 3.429688 -4.796875 3.109375 -4.796875 C 2.640625 -4.796875 2.269531 -4.640625 2 -4.328125 C 1.738281 -4.015625 1.609375 -3.519531 1.609375 -2.84375 C 1.609375 -2.164062 1.738281 -1.671875 2 -1.359375 C 2.269531 -1.046875 2.640625 -0.890625 3.109375 -0.890625 C 3.847656 -0.890625 4.300781 -1.25 4.46875 -1.96875 L 4.5625 -1.96875 L 5.390625 -1.53125 C 5.234375 -1 4.96875 -0.597656 4.59375 -0.328125 C 4.21875 -0.0546875 3.722656 0.078125 3.109375 0.078125 Z M 3.109375 0.078125 "/></g></g></g><g fill="#d9d9d9" fill-opacity="1"><g transform="translate(68.464919, 73.80609)"><g><path d="M 0.625 0 L 0.625 -4.296875 L 1.671875 -4.296875 L 1.671875 -3.65625 L 1.75 -3.640625 C 1.851562 -3.878906 1.988281 -4.050781 2.15625 -4.15625 C 2.320312 -4.269531 2.523438 -4.328125 2.765625 -4.328125 C 3.015625 -4.328125 3.203125 -4.285156 3.328125 -4.203125 L 3.140625 -3.28125 L 3.0625 -3.265625 C 2.988281 -3.285156 2.921875 -3.300781 2.859375 -3.3125 C 2.796875 -3.332031 2.71875 -3.34375 2.625 -3.34375 C 2.320312 -3.34375 2.09375 -3.234375 1.9375 -3.015625 C 1.78125 -2.804688 1.703125 -2.46875 1.703125 -2 L 1.703125 0 Z M 0.625 0 "/></g></g></g><g fill="#d9d9d9" fill-opacity="1"><g transform="translate(71.826342, 73.80609)"><g><path d="M 2.5 0.078125 C 2.070312 0.078125 1.695312 -0.00390625 1.375 -0.171875 C 1.0625 -0.347656 0.816406 -0.601562 0.640625 -0.9375 C 0.472656 -1.269531 0.390625 -1.671875 0.390625 -2.140625 C 0.390625 -2.617188 0.472656 -3.023438 0.640625 -3.359375 C 0.816406 -3.691406 1.0625 -3.941406 1.375 -4.109375 C 1.695312 -4.285156 2.070312 -4.375 2.5 -4.375 C 2.914062 -4.375 3.28125 -4.285156 3.59375 -4.109375 C 3.914062 -3.941406 4.164062 -3.691406 4.34375 -3.359375 C 4.519531 -3.023438 4.609375 -2.617188 4.609375 -2.140625 C 4.609375 -1.671875 4.519531 -1.269531 4.34375 -0.9375 C 4.164062 -0.601562 3.914062 -0.347656 3.59375 -0.171875 C 3.28125 -0.00390625 2.914062 0.078125 2.5 0.078125 Z M 2.5 -0.828125 C 3.164062 -0.828125 3.5 -1.265625 3.5 -2.140625 C 3.5 -2.597656 3.410156 -2.929688 3.234375 -3.140625 C 3.066406 -3.347656 2.820312 -3.453125 2.5 -3.453125 C 1.832031 -3.453125 1.5 -3.015625 1.5 -2.140625 C 1.5 -1.265625 1.832031 -0.828125 2.5 -0.828125 Z M 2.5 -0.828125 "/></g></g></g><g fill="#d9d9d9" fill-opacity="1"><g transform="translate(76.808243, 73.80609)"><g><path d="M 0.625 1.734375 L 0.625 -4.296875 L 1.703125 -4.296875 L 1.703125 -3.734375 L 1.78125 -3.71875 C 1.90625 -3.9375 2.070312 -4.097656 2.28125 -4.203125 C 2.5 -4.316406 2.75 -4.375 3.03125 -4.375 C 3.375 -4.375 3.675781 -4.289062 3.9375 -4.125 C 4.195312 -3.96875 4.398438 -3.722656 4.546875 -3.390625 C 4.691406 -3.054688 4.765625 -2.640625 4.765625 -2.140625 C 4.765625 -1.648438 4.6875 -1.238281 4.53125 -0.90625 C 4.375 -0.570312 4.160156 -0.320312 3.890625 -0.15625 C 3.628906 0 3.320312 0.078125 2.96875 0.078125 C 2.695312 0.078125 2.460938 0.0351562 2.265625 -0.046875 C 2.078125 -0.140625 1.914062 -0.28125 1.78125 -0.46875 L 1.703125 -0.453125 L 1.703125 1.734375 Z M 2.671875 -0.828125 C 2.984375 -0.828125 3.222656 -0.929688 3.390625 -1.140625 C 3.554688 -1.359375 3.640625 -1.691406 3.640625 -2.140625 C 3.640625 -2.597656 3.554688 -2.929688 3.390625 -3.140625 C 3.222656 -3.347656 2.984375 -3.453125 2.671875 -3.453125 C 2.367188 -3.453125 2.128906 -3.34375 1.953125 -3.125 C 1.773438 -2.914062 1.6875 -2.585938 1.6875 -2.140625 C 1.6875 -1.703125 1.773438 -1.375 1.953125 -1.15625 C 2.128906 -0.9375 2.367188 -0.828125 2.671875 -0.828125 Z M 2.671875 -0.828125 "/></g></g></g><g fill="#d9d9d9" fill-opacity="1"><g transform="translate(81.941699, 73.80609)"><g><path d="M 0.625 1.734375 L 0.625 -4.296875 L 1.703125 -4.296875 L 1.703125 -3.734375 L 1.78125 -3.71875 C 1.90625 -3.9375 2.070312 -4.097656 2.28125 -4.203125 C 2.5 -4.316406 2.75 -4.375 3.03125 -4.375 C 3.375 -4.375 3.675781 -4.289062 3.9375 -4.125 C 4.195312 -3.96875 4.398438 -3.722656 4.546875 -3.390625 C 4.691406 -3.054688 4.765625 -2.640625 4.765625 -2.140625 C 4.765625 -1.648438 4.6875 -1.238281 4.53125 -0.90625 C 4.375 -0.570312 4.160156 -0.320312 3.890625 -0.15625 C 3.628906 0 3.320312 0.078125 2.96875 0.078125 C 2.695312 0.078125 2.460938 0.0351562 2.265625 -0.046875 C 2.078125 -0.140625 1.914062 -0.28125 1.78125 -0.46875 L 1.703125 -0.453125 L 1.703125 1.734375 Z M 2.671875 -0.828125 C 2.984375 -0.828125 3.222656 -0.929688 3.390625 -1.140625 C 3.554688 -1.359375 3.640625 -1.691406 3.640625 -2.140625 C 3.640625 -2.597656 3.554688 -2.929688 3.390625 -3.140625 C 3.222656 -3.347656 2.984375 -3.453125 2.671875 -3.453125 C 2.367188 -3.453125 2.128906 -3.34375 1.953125 -3.125 C 1.773438 -2.914062 1.6875 -2.585938 1.6875 -2.140625 C 1.6875 -1.703125 1.773438 -1.375 1.953125 -1.15625 C 2.128906 -0.9375 2.367188 -0.828125 2.671875 -0.828125 Z M 2.671875 -0.828125 "/></g></g></g><g fill="#d9d9d9" fill-opacity="1"><g transform="translate(87.075156, 73.80609)"><g><path d="M 4.234375 -1.90625 L 1.484375 -1.90625 C 1.515625 -1.53125 1.617188 -1.253906 1.796875 -1.078125 C 1.984375 -0.910156 2.234375 -0.828125 2.546875 -0.828125 C 2.796875 -0.828125 2.992188 -0.875 3.140625 -0.96875 C 3.296875 -1.0625 3.421875 -1.203125 3.515625 -1.390625 L 3.59375 -1.390625 L 4.3125 -0.9375 C 4.164062 -0.632812 3.953125 -0.390625 3.671875 -0.203125 C 3.390625 -0.015625 3.015625 0.078125 2.546875 0.078125 C 2.097656 0.078125 1.710938 -0.00390625 1.390625 -0.171875 C 1.066406 -0.335938 0.816406 -0.585938 0.640625 -0.921875 C 0.472656 -1.253906 0.390625 -1.660156 0.390625 -2.140625 C 0.390625 -2.628906 0.476562 -3.039062 0.65625 -3.375 C 0.84375 -3.707031 1.09375 -3.957031 1.40625 -4.125 C 1.71875 -4.289062 2.070312 -4.375 2.46875 -4.375 C 3.070312 -4.375 3.535156 -4.210938 3.859375 -3.890625 C 4.179688 -3.566406 4.34375 -3.09375 4.34375 -2.46875 C 4.34375 -2.25 4.335938 -2.078125 4.328125 -1.953125 Z M 3.3125 -2.59375 C 3.300781 -2.925781 3.222656 -3.164062 3.078125 -3.3125 C 2.941406 -3.457031 2.738281 -3.53125 2.46875 -3.53125 C 1.925781 -3.53125 1.601562 -3.21875 1.5 -2.59375 Z M 3.3125 -2.59375 "/></g></g></g><g fill="#d9d9d9" fill-opacity="1"><g transform="translate(91.734516, 73.80609)"><g><path d="M 2.125 0.078125 C 1.78125 0.078125 1.476562 0 1.21875 -0.15625 C 0.957031 -0.320312 0.753906 -0.570312 0.609375 -0.90625 C 0.460938 -1.238281 0.390625 -1.648438 0.390625 -2.140625 C 0.390625 -2.628906 0.460938 -3.039062 0.609375 -3.375 C 0.765625 -3.707031 0.972656 -3.957031 1.234375 -4.125 C 1.503906 -4.289062 1.816406 -4.375 2.171875 -4.375 C 2.441406 -4.375 2.671875 -4.328125 2.859375 -4.234375 C 3.054688 -4.140625 3.222656 -4 3.359375 -3.8125 L 3.453125 -3.828125 L 3.453125 -6.015625 L 4.53125 -6.015625 L 4.53125 0 L 3.453125 0 L 3.453125 -0.5625 L 3.359375 -0.578125 C 3.242188 -0.367188 3.082031 -0.207031 2.875 -0.09375 C 2.664062 0.0195312 2.414062 0.078125 2.125 0.078125 Z M 2.46875 -0.828125 C 2.769531 -0.828125 3.007812 -0.9375 3.1875 -1.15625 C 3.363281 -1.375 3.453125 -1.703125 3.453125 -2.140625 C 3.453125 -2.585938 3.363281 -2.914062 3.1875 -3.125 C 3.007812 -3.34375 2.769531 -3.453125 2.46875 -3.453125 C 2.15625 -3.453125 1.914062 -3.347656 1.75 -3.140625 C 1.582031 -2.929688 1.5 -2.597656 1.5 -2.140625 C 1.5 -1.691406 1.582031 -1.359375 1.75 -1.140625 C 1.914062 -0.929688 2.15625 -0.828125 2.46875 -0.828125 Z M 2.46875 -0.828125 "/></g></g></g><g fill="#d9d9d9" fill-opacity="1"><g transform="translate(96.873955, 73.80609)"><g/></g></g><g fill="#d9d9d9" fill-opacity="1"><g transform="translate(69.135528, 84.261971)"><g><path d="M 1.15625 -4.8125 C 0.957031 -4.8125 0.796875 -4.867188 0.671875 -4.984375 C 0.554688 -5.097656 0.5 -5.25 0.5 -5.4375 C 0.5 -5.625 0.554688 -5.773438 0.671875 -5.890625 C 0.796875 -6.003906 0.957031 -6.0625 1.15625 -6.0625 C 1.28125 -6.0625 1.394531 -6.035156 1.5 -5.984375 C 1.601562 -5.929688 1.679688 -5.859375 1.734375 -5.765625 C 1.796875 -5.671875 1.828125 -5.5625 1.828125 -5.4375 C 1.828125 -5.3125 1.796875 -5.203125 1.734375 -5.109375 C 1.679688 -5.015625 1.601562 -4.941406 1.5 -4.890625 C 1.394531 -4.835938 1.28125 -4.8125 1.15625 -4.8125 Z M 0.625 0 L 0.625 -4.296875 L 1.703125 -4.296875 L 1.703125 0 Z M 0.625 0 "/></g></g></g><g fill="#d9d9d9" fill-opacity="1"><g transform="translate(71.443835, 84.261971)"><g><path d="M 0.625 0 L 0.625 -4.296875 L 1.65625 -4.296875 L 1.65625 -3.71875 L 1.734375 -3.703125 C 1.878906 -3.929688 2.046875 -4.097656 2.234375 -4.203125 C 2.421875 -4.316406 2.660156 -4.375 2.953125 -4.375 C 3.273438 -4.375 3.535156 -4.304688 3.734375 -4.171875 C 3.929688 -4.046875 4.070312 -3.863281 4.15625 -3.625 L 4.25 -3.625 C 4.375 -3.875 4.539062 -4.0625 4.75 -4.1875 C 4.957031 -4.3125 5.21875 -4.375 5.53125 -4.375 C 6.425781 -4.375 6.875 -3.878906 6.875 -2.890625 L 6.875 0 L 5.796875 0 L 5.796875 -2.75 C 5.796875 -3 5.742188 -3.179688 5.640625 -3.296875 C 5.546875 -3.410156 5.390625 -3.46875 5.171875 -3.46875 C 4.578125 -3.46875 4.28125 -3.070312 4.28125 -2.28125 L 4.28125 0 L 3.203125 0 L 3.203125 -2.75 C 3.203125 -3 3.148438 -3.179688 3.046875 -3.296875 C 2.953125 -3.410156 2.796875 -3.46875 2.578125 -3.46875 C 2.296875 -3.46875 2.078125 -3.375 1.921875 -3.1875 C 1.773438 -3 1.703125 -2.703125 1.703125 -2.296875 L 1.703125 0 Z M 0.625 0 "/></g></g></g><g fill="#d9d9d9" fill-opacity="1"><g transform="translate(78.858396, 84.261971)"><g><path d="M 1.671875 0.078125 C 1.398438 0.078125 1.160156 0.03125 0.953125 -0.0625 C 0.753906 -0.164062 0.597656 -0.316406 0.484375 -0.515625 C 0.378906 -0.710938 0.328125 -0.945312 0.328125 -1.21875 C 0.328125 -1.476562 0.378906 -1.691406 0.484375 -1.859375 C 0.597656 -2.035156 0.769531 -2.175781 1 -2.28125 C 1.226562 -2.394531 1.523438 -2.484375 1.890625 -2.546875 C 2.148438 -2.585938 2.34375 -2.628906 2.46875 -2.671875 C 2.601562 -2.722656 2.691406 -2.78125 2.734375 -2.84375 C 2.785156 -2.90625 2.8125 -2.984375 2.8125 -3.078125 C 2.8125 -3.210938 2.765625 -3.316406 2.671875 -3.390625 C 2.578125 -3.460938 2.414062 -3.5 2.1875 -3.5 C 1.957031 -3.5 1.734375 -3.445312 1.515625 -3.34375 C 1.296875 -3.238281 1.109375 -3.097656 0.953125 -2.921875 L 0.875 -2.921875 L 0.421875 -3.609375 C 0.640625 -3.847656 0.90625 -4.035156 1.21875 -4.171875 C 1.53125 -4.304688 1.875 -4.375 2.25 -4.375 C 2.8125 -4.375 3.21875 -4.253906 3.46875 -4.015625 C 3.726562 -3.773438 3.859375 -3.429688 3.859375 -2.984375 L 3.859375 -1.125 C 3.859375 -0.925781 3.941406 -0.828125 4.109375 -0.828125 C 4.179688 -0.828125 4.25 -0.84375 4.3125 -0.875 L 4.359375 -0.859375 L 4.4375 -0.09375 C 4.375 -0.0625 4.289062 -0.03125 4.1875 0 C 4.082031 0.0195312 3.96875 0.03125 3.84375 0.03125 C 3.582031 0.03125 3.378906 -0.015625 3.234375 -0.109375 C 3.085938 -0.210938 2.988281 -0.367188 2.9375 -0.578125 L 2.84375 -0.59375 C 2.632812 -0.144531 2.242188 0.078125 1.671875 0.078125 Z M 2.015625 -0.71875 C 2.265625 -0.71875 2.460938 -0.800781 2.609375 -0.96875 C 2.765625 -1.132812 2.84375 -1.367188 2.84375 -1.671875 L 2.84375 -2.109375 L 2.765625 -2.125 C 2.703125 -2.070312 2.613281 -2.023438 2.5 -1.984375 C 2.394531 -1.953125 2.242188 -1.921875 2.046875 -1.890625 C 1.816406 -1.847656 1.648438 -1.78125 1.546875 -1.6875 C 1.441406 -1.59375 1.390625 -1.457031 1.390625 -1.28125 C 1.390625 -1.101562 1.441406 -0.960938 1.546875 -0.859375 C 1.660156 -0.765625 1.816406 -0.71875 2.015625 -0.71875 Z M 2.015625 -0.71875 "/></g></g></g><g fill="#d9d9d9" fill-opacity="1"><g transform="translate(83.377858, 84.261971)"><g><path d="M 2.21875 1.828125 C 1.507812 1.828125 0.988281 1.722656 0.65625 1.515625 C 0.320312 1.304688 0.15625 1.015625 0.15625 0.640625 C 0.15625 0.410156 0.222656 0.222656 0.359375 0.078125 C 0.503906 -0.0546875 0.710938 -0.148438 0.984375 -0.203125 L 0.984375 -0.28125 C 0.835938 -0.375 0.734375 -0.472656 0.671875 -0.578125 C 0.609375 -0.679688 0.578125 -0.804688 0.578125 -0.953125 C 0.578125 -1.296875 0.800781 -1.53125 1.25 -1.65625 L 1.25 -1.734375 C 1.019531 -1.867188 0.847656 -2.03125 0.734375 -2.21875 C 0.617188 -2.414062 0.5625 -2.65625 0.5625 -2.9375 C 0.5625 -3.21875 0.625 -3.46875 0.75 -3.6875 C 0.882812 -3.90625 1.078125 -4.070312 1.328125 -4.1875 C 1.578125 -4.3125 1.878906 -4.375 2.234375 -4.375 C 2.597656 -4.375 2.882812 -4.3125 3.09375 -4.1875 C 3.226562 -4.375 3.304688 -4.597656 3.328125 -4.859375 L 3.40625 -4.90625 L 4.171875 -4.71875 C 4.148438 -4.507812 4.09375 -4.332031 4 -4.1875 C 3.90625 -4.050781 3.753906 -3.929688 3.546875 -3.828125 L 3.546875 -3.734375 C 3.796875 -3.523438 3.921875 -3.226562 3.921875 -2.84375 C 3.921875 -2.582031 3.851562 -2.347656 3.71875 -2.140625 C 3.582031 -1.929688 3.390625 -1.765625 3.140625 -1.640625 C 2.890625 -1.515625 2.585938 -1.453125 2.234375 -1.453125 L 2.078125 -1.453125 C 1.972656 -1.460938 1.898438 -1.46875 1.859375 -1.46875 C 1.753906 -1.46875 1.675781 -1.441406 1.625 -1.390625 C 1.570312 -1.335938 1.546875 -1.269531 1.546875 -1.1875 C 1.546875 -1.09375 1.582031 -1.019531 1.65625 -0.96875 C 1.726562 -0.914062 1.832031 -0.890625 1.96875 -0.890625 L 2.9375 -0.859375 C 3.882812 -0.828125 4.359375 -0.414062 4.359375 0.375 C 4.359375 0.65625 4.285156 0.898438 4.140625 1.109375 C 4.003906 1.328125 3.773438 1.5 3.453125 1.625 C 3.140625 1.757812 2.726562 1.828125 2.21875 1.828125 Z M 2.234375 -2.203125 C 2.441406 -2.203125 2.601562 -2.265625 2.71875 -2.390625 C 2.84375 -2.515625 2.90625 -2.691406 2.90625 -2.921875 C 2.90625 -3.140625 2.84375 -3.304688 2.71875 -3.421875 C 2.601562 -3.546875 2.441406 -3.609375 2.234375 -3.609375 C 2.023438 -3.609375 1.863281 -3.546875 1.75 -3.421875 C 1.632812 -3.304688 1.578125 -3.140625 1.578125 -2.921875 C 1.578125 -2.691406 1.632812 -2.515625 1.75 -2.390625 C 1.863281 -2.265625 2.023438 -2.203125 2.234375 -2.203125 Z M 2.21875 1.03125 C 2.59375 1.03125 2.863281 0.976562 3.03125 0.875 C 3.195312 0.78125 3.28125 0.648438 3.28125 0.484375 C 3.28125 0.347656 3.234375 0.242188 3.140625 0.171875 C 3.054688 0.109375 2.925781 0.078125 2.75 0.078125 L 1.890625 0.03125 C 1.867188 0.03125 1.84375 0.03125 1.8125 0.03125 C 1.789062 0.03125 1.769531 0.03125 1.75 0.03125 C 1.5625 0.03125 1.421875 0.0664062 1.328125 0.140625 C 1.234375 0.222656 1.1875 0.332031 1.1875 0.46875 C 1.1875 0.65625 1.269531 0.796875 1.4375 0.890625 C 1.613281 0.984375 1.875 1.03125 2.21875 1.03125 Z M 2.21875 1.03125 "/></g></g></g><g fill="#d9d9d9" fill-opacity="1"><g transform="translate(87.835144, 84.261971)"><g><path d="M 4.234375 -1.90625 L 1.484375 -1.90625 C 1.515625 -1.53125 1.617188 -1.253906 1.796875 -1.078125 C 1.984375 -0.910156 2.234375 -0.828125 2.546875 -0.828125 C 2.796875 -0.828125 2.992188 -0.875 3.140625 -0.96875 C 3.296875 -1.0625 3.421875 -1.203125 3.515625 -1.390625 L 3.59375 -1.390625 L 4.3125 -0.9375 C 4.164062 -0.632812 3.953125 -0.390625 3.671875 -0.203125 C 3.390625 -0.015625 3.015625 0.078125 2.546875 0.078125 C 2.097656 0.078125 1.710938 -0.00390625 1.390625 -0.171875 C 1.066406 -0.335938 0.816406 -0.585938 0.640625 -0.921875 C 0.472656 -1.253906 0.390625 -1.660156 0.390625 -2.140625 C 0.390625 -2.628906 0.476562 -3.039062 0.65625 -3.375 C 0.84375 -3.707031 1.09375 -3.957031 1.40625 -4.125 C 1.71875 -4.289062 2.070312 -4.375 2.46875 -4.375 C 3.070312 -4.375 3.535156 -4.210938 3.859375 -3.890625 C 4.179688 -3.566406 4.34375 -3.09375 4.34375 -2.46875 C 4.34375 -2.25 4.335938 -2.078125 4.328125 -1.953125 Z M 3.3125 -2.59375 C 3.300781 -2.925781 3.222656 -3.164062 3.078125 -3.3125 C 2.941406 -3.457031 2.738281 -3.53125 2.46875 -3.53125 C 1.925781 -3.53125 1.601562 -3.21875 1.5 -2.59375 Z M 3.3125 -2.59375 "/></g></g></g><path fill="#00bf63" d="M 16.019531 8.699219 L 16.019531 10.195312 C 16.019531 10.296875 15.984375 10.386719 15.910156 10.457031 C 15.839844 10.53125 15.75 10.566406 15.648438 10.566406 C 15.542969 10.566406 15.457031 10.53125 15.382812 10.457031 C 15.3125 10.386719 15.273438 10.296875 15.273438 10.195312 L 15.273438 8.699219 C 15.273438 8.597656 15.3125 8.507812 15.382812 8.4375 C 15.457031 8.363281 15.542969 8.328125 15.648438 8.328125 C 15.75 8.328125 15.839844 8.363281 15.910156 8.4375 C 15.984375 8.507812 16.019531 8.597656 16.019531 8.699219 Z M 16.019531 11.6875 L 16.019531 13.179688 C 16.019531 13.285156 15.984375 13.371094 15.910156 13.445312 C 15.839844 13.519531 15.75 13.554688 15.648438 13.554688 C 15.542969 13.554688 15.457031 13.519531 15.382812 13.445312 C 15.3125 13.371094 15.273438 13.285156 15.273438 13.179688 L 15.273438 11.6875 C 15.273438 11.585938 15.3125 11.496094 15.382812 11.425781 C 15.457031 11.351562 15.542969 11.316406 15.648438 11.316406 C 15.75 11.316406 15.839844 11.351562 15.910156 11.425781 C 15.984375 11.496094 16.019531 11.585938 16.019531 11.6875 Z M 16.019531 14.675781 L 16.019531 16.167969 C 16.019531 16.273438 15.984375 16.359375 15.910156 16.433594 C 15.839844 16.507812 15.75 16.542969 15.648438 16.542969 C 15.542969 16.542969 15.457031 16.507812 15.382812 16.433594 C 15.3125 16.359375 15.273438 16.273438 15.273438 16.167969 L 15.273438 14.675781 C 15.273438 14.570312 15.3125 14.484375 15.382812 14.410156 C 15.457031 14.339844 15.542969 14.300781 15.648438 14.300781 C 15.75 14.300781 15.839844 14.339844 15.910156 14.410156 C 15.984375 14.484375 16.019531 14.570312 16.019531 14.675781 Z M 16.019531 14.675781 " fill-opacity="1" fill-rule="nonzero"/><path fill="#00bf63" d="M 7.328125 55.332031 L 8.820312 55.332031 C 8.921875 55.332031 9.011719 55.371094 9.085938 55.441406 C 9.15625 55.515625 9.195312 55.605469 9.195312 55.707031 C 9.195312 55.808594 9.15625 55.898438 9.085938 55.972656 C 9.011719 56.042969 8.921875 56.082031 8.820312 56.082031 L 7.328125 56.082031 C 7.222656 56.082031 7.136719 56.042969 7.0625 55.972656 C 6.988281 55.898438 6.953125 55.808594 6.953125 55.707031 C 6.953125 55.605469 6.988281 55.515625 7.0625 55.441406 C 7.136719 55.371094 7.222656 55.332031 7.328125 55.332031 Z M 10.3125 55.332031 L 11.808594 55.332031 C 11.910156 55.332031 12 55.371094 12.070312 55.441406 C 12.144531 55.515625 12.179688 55.605469 12.179688 55.707031 C 12.179688 55.808594 12.144531 55.898438 12.070312 55.972656 C 12 56.042969 11.910156 56.082031 11.808594 56.082031 L 10.3125 56.082031 C 10.210938 56.082031 10.125 56.042969 10.050781 55.972656 C 9.976562 55.898438 9.941406 55.808594 9.941406 55.707031 C 9.941406 55.605469 9.976562 55.515625 10.050781 55.441406 C 10.125 55.371094 10.210938 55.332031 10.3125 55.332031 Z M 13.300781 55.332031 L 14.796875 55.332031 C 14.898438 55.332031 14.988281 55.371094 15.058594 55.441406 C 15.132812 55.515625 15.167969 55.605469 15.167969 55.707031 C 15.167969 55.808594 15.132812 55.898438 15.058594 55.972656 C 14.988281 56.042969 14.898438 56.082031 14.796875 56.082031 L 13.300781 56.082031 C 13.199219 56.082031 13.109375 56.042969 13.039062 55.972656 C 12.964844 55.898438 12.929688 55.808594 12.929688 55.707031 C 12.929688 55.605469 12.964844 55.515625 13.039062 55.441406 C 13.109375 55.371094 13.199219 55.332031 13.300781 55.332031 Z M 13.300781 55.332031 " fill-opacity="1" fill-rule="nonzero"/><path fill="#00bf63" d="M 44.347656 8.699219 L 44.347656 10.195312 C 44.347656 10.296875 44.3125 10.386719 44.238281 10.457031 C 44.167969 10.53125 44.078125 10.566406 43.976562 10.566406 C 43.871094 10.566406 43.785156 10.53125 43.710938 10.457031 C 43.636719 10.386719 43.601562 10.296875 43.601562 10.195312 L 43.601562 8.699219 C 43.601562 8.597656 43.636719 8.507812 43.710938 8.4375 C 43.785156 8.363281 43.871094 8.328125 43.976562 8.328125 C 44.078125 8.328125 44.167969 8.363281 44.238281 8.4375 C 44.3125 8.507812 44.347656 8.597656 44.347656 8.699219 Z M 44.347656 11.6875 L 44.347656 13.179688 C 44.347656 13.285156 44.3125 13.371094 44.238281 13.445312 C 44.167969 13.519531 44.078125 13.554688 43.976562 13.554688 C 43.871094 13.554688 43.785156 13.519531 43.710938 13.445312 C 43.636719 13.371094 43.601562 13.285156 43.601562 13.179688 L 43.601562 11.6875 C 43.601562 11.585938 43.636719 11.496094 43.710938 11.425781 C 43.785156 11.351562 43.871094 11.316406 43.976562 11.316406 C 44.078125 11.316406 44.167969 11.351562 44.238281 11.425781 C 44.3125 11.496094 44.347656 11.585938 44.347656 11.6875 Z M 44.347656 14.675781 L 44.347656 16.167969 C 44.347656 16.273438 44.3125 16.359375 44.238281 16.433594 C 44.167969 16.507812 44.078125 16.542969 43.976562 16.542969 C 43.871094 16.542969 43.785156 16.507812 43.710938 16.433594 C 43.636719 16.359375 43.601562 16.273438 43.601562 16.167969 L 43.601562 14.675781 C 43.601562 14.570312 43.636719 14.484375 43.710938 14.410156 C 43.785156 14.339844 43.871094 14.300781 43.976562 14.300781 C 44.078125 14.300781 44.167969 14.339844 44.238281 14.410156 C 44.3125 14.484375 44.347656 14.570312 44.347656 14.675781 Z M 44.347656 14.675781 " fill-opacity="1" fill-rule="nonzero"/></svg>